<svg xmlns="http://www.w3.org/2000/svg" width="733" height="482" fill="none"><defs><linearGradient id="a" x1="203" x2="214" y1="390" y2="390" gradientUnits="userSpaceOnUse"><stop stop-color="#183866"/><stop offset="1" stop-color="#1A7FC1"/></linearGradient><linearGradient id="b" x1="229.992" x2="236" y1="387.001" y2="387.001" gradientUnits="userSpaceOnUse"><stop/><stop offset=".99" stop-opacity="0"/></linearGradient><linearGradient id="c" x1="263.916" x2="293.467" y1="107.831" y2="121.651" gradientUnits="userSpaceOnUse"><stop/><stop offset=".99" stop-opacity="0"/></linearGradient><linearGradient id="d" x1="289.529" x2="244.071" y1="-96.56" y2="-108.942" gradientUnits="userSpaceOnUse"><stop/><stop offset=".99" stop-opacity="0"/></linearGradient><linearGradient id="e" x1="357.142" x2="262.428" y1="99.999" y2="69.06" gradientUnits="userSpaceOnUse"><stop/><stop offset=".99" stop-opacity="0"/></linearGradient><linearGradient id="f" x1="309.847" x2="305.879" y1="54.318" y2="53.065" gradientUnits="userSpaceOnUse"><stop/><stop offset=".99" stop-opacity="0"/></linearGradient><linearGradient id="g" x1="258.106" x2="228.879" y1="99.508" y2="107.279" gradientUnits="userSpaceOnUse"><stop/><stop offset=".99" stop-opacity="0"/></linearGradient><linearGradient id="h" x1="524.505" x2="15.17" y1="22.549" y2="-1.97" gradientUnits="userSpaceOnUse"><stop/><stop offset="1" stop-opacity="0"/></linearGradient><linearGradient id="i" x1="212.123" x2="474.119" y1="244.726" y2="244.726" gradientUnits="userSpaceOnUse"><stop stop-color="#183866"/><stop offset="1" stop-color="#1A7FC1"/></linearGradient><linearGradient id="j" x1="75.456" x2="103.085" y1="225.212" y2="332.566" gradientUnits="userSpaceOnUse"><stop/><stop offset=".99" stop-opacity="0"/></linearGradient><linearGradient id="k" x1="197.154" x2="290.628" y1="250.814" y2="280.723" gradientUnits="userSpaceOnUse"><stop/><stop offset=".99" stop-opacity="0"/></linearGradient><linearGradient id="l" x1="237.493" x2="235.098" y1="260.691" y2="279.087" gradientUnits="userSpaceOnUse"><stop/><stop offset=".99" stop-opacity="0"/></linearGradient><linearGradient id="m" x1="126.11" x2="81.724" y1="47.954" y2="46.24" gradientUnits="userSpaceOnUse"><stop/><stop offset=".99" stop-opacity="0"/></linearGradient><linearGradient id="n" x1="133.367" x2="96.285" y1="77.173" y2="75.905" gradientUnits="userSpaceOnUse"><stop/><stop offset=".99" stop-opacity="0"/></linearGradient><linearGradient id="o" x1="-192.124" x2="-210.884" y1="370.797" y2="463.536" gradientUnits="userSpaceOnUse"><stop/><stop offset=".99" stop-opacity="0"/></linearGradient><linearGradient id="p" x1="78.207" x2="75.018" y1="64.728" y2="84.368" gradientUnits="userSpaceOnUse"><stop/><stop offset=".99" stop-opacity="0"/></linearGradient><linearGradient id="q" x1="221.984" x2="262.998" y1="161.009" y2="161.009" gradientUnits="userSpaceOnUse"><stop stop-color="#ECC4D7"/><stop offset=".42" stop-color="#EFD4D1"/><stop offset="1" stop-color="#F2EAC9"/></linearGradient><linearGradient id="r" x1="268.632" x2="306.631" y1="233.608" y2="233.608" gradientUnits="userSpaceOnUse"><stop stop-color="#ECC4D7"/><stop offset=".42" stop-color="#EFD4D1"/><stop offset="1" stop-color="#F2EAC9"/></linearGradient><linearGradient id="s" x1="322.292" x2="352.292" y1="239.852" y2="239.852" gradientUnits="userSpaceOnUse"><stop stop-color="#ECC4D7"/><stop offset=".42" stop-color="#EFD4D1"/><stop offset="1" stop-color="#F2EAC9"/></linearGradient><linearGradient id="t" x1="450.177" x2="286.642" y1="203.011" y2="311.77" gradientUnits="userSpaceOnUse"><stop stop-color="#362958" stop-opacity=".502"/><stop offset="1" stop-color="#34313D" stop-opacity="0"/></linearGradient><linearGradient id="u" x1="302.125" x2="300.959" y1="46.165" y2="45.734" gradientUnits="userSpaceOnUse"><stop/><stop offset=".99" stop-opacity="0"/></linearGradient></defs><path fill="#EFF1F7" d="M583.07 92.21c-20.97-22.39-37.2-49.11-62.27-67.38-39.37-28.75-96.04-31.55-142.08-13.49-46.04 18.06-81.9 54.47-105.54 95.7-12.44 21.7-22.21 45.36-40.43 63.08-15.4 14.98-35.64 24.53-54.84 34.94-30.95 16.73-60.75 36.95-80.78 64.7-20.03 27.74-28.98 64.18-16.18 95.44 8.64 21.1 26.02 37.89 43.84 53.08 20.96 17.87 43.49 34.6 69.5 45.25 32.55 13.25 68.69 16.1 104.13 17.44 62.83 2.38 125.76.6 188.32-5.32 51.23-4.84 104.01-13.11 146.88-39.88 60.04-37.48 91-106.16 97.97-173.51 2.83-26.94 2.11-54.93-8.97-79.92-26.5-59.78-98.02-45.8-139.55-90.13Z"/><path fill="#3F3D56" d="M178.31 202.33s-16.6-2.95-21.25 8.67c-4.65 11.61 0 51.73 0 51.73L219 307l-40.69-104.67Z"/><path fill="#2BD0D0" d="m256.2 379.72-24.56 7.01c-3.57 1.01-7.31-.95-8.37-4.39-1.05-3.43.99-7.04 4.55-8.06l24.52-7.02c3.57-1.01 7.31.95 8.37 4.38 1.06 3.43-.96 7.05-4.51 8.08Z"/><circle cx="255" cy="395" r="11" fill="#25233A"/><circle cx="253.5" cy="397.5" r="5.5" fill="#3F3D56"/><circle cx="210" cy="384" r="11" fill="#25233A"/><path fill="url(#a)" d="M214 384.5c0 3.03-2.47 5.5-5.5 5.5-3.04 0-5.5-2.47-5.5-5.5 0-3.04 2.46-5.5 5.5-5.5 3.03 0 5.5 2.46 5.5 5.5Z"/><circle cx="207" cy="399" r="11" fill="#25233A"/><path fill="#3F3D56" d="M216 399.5c0 3.03-2.47 5.5-5.5 5.5-3.04 0-5.5-2.47-5.5-5.5 0-3.04 2.46-5.5 5.5-5.5 3.03 0 5.5 2.46 5.5 5.5Z"/><path fill="#2BD0D0" d="m257.08 390.87-50.79-10.05c-3.57-.71-5.88-4.13-5.16-7.63.73-3.5 4.21-5.77 7.78-5.07l50.79 10.03c3.57.72 5.88 4.13 5.17 7.64-.73 3.5-4.21 5.78-7.79 5.08Z"/><path fill="#2BD0D0" d="M226 310h14v58.99c0 3.87-3.14 7.01-7 7.01-3.87 0-7-3.14-7-7.01V310Z"/><path fill="#2BD0D0" d="m231.18 386.7-24.53 7.03c-3.57 1.01-7.32-.95-8.38-4.39-1.05-3.44.99-7.05 4.55-8.07l24.54-7.01c3.56-1.01 7.3.95 8.36 4.38 1.04 3.44-.99 7.04-4.54 8.06Z"/><path fill="url(#b)" d="m236 386.26-3.13.55c-.93.16-1.91.22-2.87.17l1.3-.23c.91-.16 1.76-.41 2.51-.75l2.19.26Z"/><path fill="url(#c)" d="M261 372.73a7.02 7.02 0 0 1-1.46 4.27L239 372.65c.51-.74.89-1.58 1.09-2.47l12.66-3.92c1.64-.5 3.41-.29 4.91.58 1.5.87 2.61 2.32 3.08 4.05.17.6.25 1.22.26 1.84Z"/><path fill="url(#d)" d="M225.22 371.1c-.15-.52-.22-1.05-.22-1.58V311h5.94v63.07c-.06.31-.04.62.06.93-.9-.32-1.87-.49-2.85-.52-.69-.04-1.38-.04-2.08 0l.43-.1c.26-.04-.94-2.09-1.28-3.28Z" opacity=".31"/><path fill="url(#e)" d="M262.28 389.8c-.97.52-2.06.79-3.17.79-.44 0-.89-.04-1.32-.13l-22.41-4.4-1.87-.37c-.64.48-1.36.84-2.13 1.06l-1.11.31-23.03 6.67c-3.51 1.01-7.2-.94-8.24-4.36 1.99 1.8 5.02 1.97 7.22.4 2.81-1.9 14-4.74 20.34-6.26 3-.7 5.29-3.05 5.85-6 .01-.17.04-.34.08-.51 1.05 1.11 2.99 2.36 6.5 3.42 8.64 2.59 22.67 4.3 22.67 4.3s2.53 2.42.62 5.08Z" opacity=".31"/><path fill="url(#f)" d="M264 388a7.92 7.92 0 0 1-2 2l2-2Z"/><path fill="url(#g)" d="M226.29 370.55c.28 1.17.87 2.25 1.71 3.13-.21.04-.43.1-.65.16L206.08 380c-3.27-.82-5.42-3.87-5.04-7.15.38-3.28 3.18-5.78 6.56-5.85.45 0 .9.04 1.34.13l17.35 3.42Z"/><path fill="#503164" d="M259 89.4s-.28-20.8-17.08-19.01c-16.8 1.8-15.51-5.09-22.69-4.34-7.17.76-15.51 7.79-13.11 16.47 2.39 8.68-6.34 10.62-12.07 17.21-5.73 6.59 1.35 11.98 11.01 18.42 9.66 6.44-.6 4.77 5.12 14.95 5.73 10.18 25.11-2.82 25.11-2.82L259 89.4Z"/><path fill="#2BD0D0" d="m122.66 434.6 11.73.4v-93.75s.59-24.24 23.45-26.67c22.86-2.43 230.2-32.47 230.2-32.47s8.22-.87 12.95 14.9c4.73 15.77 9.34 77.79 9.34 77.79l63.64 8.58s1.68-109.55-21.3-115.6c-22.98-6.04-323.53 24.76-323.53 24.76s-22.29 116.35-6.48 142.06Z"/><path fill="url(#h)" d="m122.66 434.6 11.73.4v-93.75s.59-24.24 23.45-26.67c22.86-2.43 230.2-32.47 230.2-32.47s8.22-.87 12.95 14.9c4.73 15.77 9.34 77.79 9.34 77.79l63.64 8.58s1.68-109.55-21.3-115.6c-22.98-6.04-323.53 24.76-323.53 24.76s-22.29 116.35-6.48 142.06Z" opacity=".197"/><path fill="#2BD0D0" d="M62 303.78s5.74-31.76 46.14-40.08l285.18-32.64s28-1.16 40.81 6.58c12.8 7.75 31.08 14.17 38.58 49.23 7.49 35.05 9.29 94.94 9.29 94.94l-7.09 1.1s-10.35-108.44-21.32-115.31c-10.96-6.86-307.4 35.26-307.4 35.26s-20.56 4.09-22.35 34.53c-1.79 30.44 0 96.61 0 96.61L62 409.05V303.78Z"/><path fill="url(#i)" d="M355.42 243.84c-14.76-1.9-29.64-3.28-44.52-2.72-11.18.43-22.28 1.97-33.37 3.49l-97.78 13.51c-1.65.22-3.55.6-4.37 2.04-1.6 2.75 2.14 5.46 5.18 6.51 32.51 11.26 67.24 22.66 100.7 14.63 15.3-3.67 29.52-11.29 45.03-13.93 15.52-2.65 31.45-.21 46.94-2.71 14.55-2.34 28.41-9.01 43.17-9.07 4.52 0 9.18.57 13.47-.84 4.3-1.42 8.09-5.74 6.9-10.05-13.85-.48-29.4-3.01-42.99-.26-13.45 2.71-24.89-.6-38.36-.6Z" opacity=".19"/><path fill="#2BD0D0" d="m267 259.38.57 2.11s16.88 10.17 16.77 10.5c-.11.33 70.02-16.24 70.02-16.24L356 251l-89 8.38Z"/><path fill="url(#j)" d="m267 259.38.57 2.11s16.88 10.17 16.77 10.5c-.11.33 70.02-16.24 70.02-16.24L356 251l-89 8.38Z"/><path fill="#2BD0D0" d="M268 259.36 330.1 246l25.9 5.05L285.44 268 268 259.36Z"/><path fill="url(#k)" d="M268 259.36 330.1 246l25.9 5.05L285.44 268 268 259.36Z"/><path fill="#2BD0D0" d="m247.83 270.48 14.45.51s3.68.23 4.63-2.72c.94-2.94-5.9-9.16-6.63-9.27-.73-.12-19.76 5.22-17.01 10.55l4.56.93Z"/><path fill="url(#l)" d="m247.83 270.48 14.45.51s3.68.23 4.63-2.72c.94-2.94-5.9-9.16-6.63-9.27-.73-.12-19.76 5.22-17.01 10.55l4.56.93Z"/><path fill="#2BD0D0" d="m79 416.05-7.06 21.68c-20.48 7.35-37.88 0-37.88 0L29 415s25.53 8.56 50 1.05Z"/><path fill="url(#m)" d="m79 416.05-7.06 21.68c-20.48 7.35-37.88 0-37.88 0L29 415s25.53 8.56 50 1.05Z"/><path fill="#2BD0D0" d="m87 396-2.29 16.94-5.79 3.01c-24.64 7.42-50.41-1.04-50.41-1.04l-4.44-3.28L22 396h65Z"/><path fill="url(#n)" d="m87 396-2.29 16.94-5.79 3.01c-24.64 7.42-50.41-1.04-50.41-1.04l-4.44-3.28L22 396h65Z"/><ellipse cx="54.5" cy="395" fill="#2BD0D0" rx="32.5" ry="6"/><ellipse cx="54.5" cy="395" fill="url(#o)" rx="32.5" ry="6"/><path fill="#2BD0D0" d="M39.64 265.03c-3.19-1.52-6.61-2.66-9.36-4.88-5.55-4.49-6.95-12.24-8.69-19.19-1.74-6.95-5.1-14.6-11.94-16.59-2.57-.74-5.57-.44-7.52 1.39-2.05 1.93-2.47 5.11-1.91 7.91.56 2.81 1.93 5.32 2.99 7.98 2.46 6.17 3.22 12.9 2.17 19.48-.87 5.38-2.93 10.85-1.6 16.13 2.25 8.96 13.47 14.22 13.78 23.46.21 6.23-4.89 12-3.73 18.13.85 4.54 5 8.08 5.22 12.69.26 5.23-4.66 9.66-4.42 14.89.24 5.23 5.43 8.72 8.82 12.84 2.84 3.45 4.52 7.72 4.82 12.19.18 2.79-.18 5.68.73 8.33.66 1.93 1.98 3.57 3 5.31 1.13 1.88 1.98 3.92 3.34 5.66 3.5 4.44 9.34 6.28 14.73 4.65 1.05-6.95.13-14.04.42-21.07.58-13.6 5.69-27.32 2.42-40.53-1.2-4.84-3.51-9.44-3.92-14.41-.37-4.44.81-8.84 1.63-13.22 1.69-9.04 1.66-18.39.97-27.54-.55-7.25-5.62-10.6-11.95-13.61Z"/><path fill="#2BD0D0" d="M59.75 300.76c-.06 6.06 1.33 12.33-.61 18.09-1.47 4.36-4.71 7.93-6.38 12.22-3.85 9.9 1.33 21 .28 31.57-.44 4.35-1.94 8.54-2.88 12.81a51.043 51.043 0 0 0-.85 16.49 4.162 4.162 0 0 0 3.32 4.34c3.26 1.24 6.63 2.15 10.08 2.72-1.17-6.41.06-13.03 3.44-18.59 5.27-8.63 15.52-14.45 17.43-24.36 1.29-6.72-1.71-13.53-1.5-20.36.15-4.54 1.72-8.93 4.48-12.55 2.48-3.22 5.84-5.72 8.15-9.07 5.54-8.06 3.81-18.84 2.17-28.49-1.65-9.65-2.61-20.75 3.91-28.06 2.06-2.31 4.74-4.04 6.61-6.51 4.17-5.5 3.12-13.98-1.73-18.9-4.84-4.92-12.63-6.28-19.22-4.12-2.77.82-5.22 2.48-7 4.76-3.33 4.72-2 11.16-.59 16.76 1.23 4.87 2.22 10.48.54 15.39-1.26 3.65-4.44 5.63-7.15 8.17a38.902 38.902 0 0 0-12.5 27.69Z"/><path fill="#30C59B" d="M53.06 354.52c-.94 6.59-2.29 13.24-2.57 19.85v.66c-.02.17-.05.33-.11.48a51.394 51.394 0 0 0-.87 16.5c.04.9.26 1.77.66 2.57-.03.28-.07.55-.11.83a13.702 13.702 0 0 1-14.73-4.65c-1.32-1.74-2.21-3.78-3.34-5.66-1.06-1.75-2.35-3.39-3.01-5.31-.9-2.66-.55-5.54-.72-8.33a21.48 21.48 0 0 0-4.83-12.2c-3.39-4.08-8.59-7.51-8.82-12.83-.23-5.32 4.68-9.66 4.42-14.89-.22-4.61-4.37-8.15-5.23-12.69-1.15-6.14 3.97-11.9 3.74-18.14-.32-9.24-11.54-14.49-13.79-23.46-1.32-5.28.74-10.74 1.61-16.13 1.05-6.57.3-13.29-2.15-19.46-1.06-2.66-2.43-5.17-2.99-7.98-.56-2.81-.14-5.98 1.91-7.92 1.98-1.83 4.96-2.13 7.52-1.39 6.85 1.99 10.2 9.66 11.95 16.62 1.74 6.95 3.14 14.69 8.69 19.2 2.74 2.22 6.18 3.35 9.36 4.87 6.34 3.01 11.41 6.36 11.95 13.55.66 9.14.72 18.49-.97 27.54-.82 4.38-1.98 8.78-1.63 13.22.35 4.44 2.27 8.64 3.53 12.94.14.49.28.98.4 1.47 1.66 6.84 1.12 13.76.13 20.74Z"/><path fill="url(#p)" d="M49.71 394c-.29-.78-.47-1.62-.5-2.49-.43-5.36-.21-10.78.64-16.05.02-.15.05-.31.08-.46-.17 6.34.37 12.74-.22 19Z"/><path fill="#30C59B" d="M107.39 251.01c-1.87 2.47-4.56 4.2-6.63 6.51-6.53 7.3-5.57 18.41-3.92 28.06 1.66 9.65 3.39 20.43-2.17 28.49-2.31 3.32-5.67 5.85-8.16 9.07a21.99 21.99 0 0 0-4.49 12.55c-.21 6.83 2.8 13.64 1.51 20.36-1.91 9.91-12.18 15.74-17.46 24.36A26.66 26.66 0 0 0 62.65 399c-3.44-.57-6.81-1.48-10.06-2.72-.89-.26-1.7-.75-2.35-1.41-.09-.11-.17-.23-.25-.35-.41-.79-.65-1.66-.69-2.55-.6-5.51-.3-11.07.88-16.48.03-.16.07-.32.11-.48.95-4.11 2.35-8.14 2.78-12.34.22-2.72.17-5.45-.16-8.16 1-6.97 1.54-13.89-.16-20.67-.12-.49-.26-.98-.4-1.47.13-.42.28-.85.44-1.27 1.67-4.29 4.91-7.86 6.38-12.22 1.94-5.76.56-12.02.62-18.09.08-10.46 4.82-20.58 12.42-27.72 2.71-2.54 5.91-4.52 7.16-8.17 1.69-4.91.67-10.52-.54-15.39-1.41-5.6-2.76-12.04.59-16.76 1.67-2.34 4.29-3.86 7.02-4.76 6.57-2.16 14.41-.8 19.25 4.12s5.87 13.43 1.7 18.9Z"/><path fill="#2BD0D0" d="M225.57 146.14s-27.82 4.3-40.69 34.98c-12.86 30.68-6.17 68.68-5.95 72.03.23 3.34 39.43 17.85 50.64 17.85s13.54-11.23 13.54-11.23l-19.8-8.44 60.17-6.95h10.8l-5.95 10.04s11.74 1.23 19.59 1.51 13.18-15.24 14.06-22.96c.88-7.72-34.67-75.46-39.98-79.47-5.31-4.01-19.71-13.82-56.43-7.36Z"/><path fill="url(#q)" d="M258.39 88.77s5.03 2.83 4.58 11.99c-.46 9.15-3.29 22.93-6.16 26.5-2.86 3.57-12.87 4.96-12.87 4.96s5.46 12.98 9.52 16.33c4.07 3.35-4.08 15.69-12.01 11.64-7.93-4.05-17.12-14.22-17.12-14.22s6.61-12.24 4.38-18.69c-2.24-6.44-10.78-29.06-4.38-35.24 6.4-6.18 20.19-15.03 34.06-3.27Z"/><path fill="#FFF" d="M214.33 190 210 244.05l13.23 6.95 10.77-1.88-13.43-16.51-6.24-42.61ZM284 187s17.9 42.07 9.97 57l-6.12-1.17L284 187Z" opacity=".25"/><path fill="url(#r)" d="M235.52 258.04s-6.77 5.78-3.75 10.27c3.02 4.49 6.63 4.36 9.63 2.35 3.01-2.01 8.91-6.77 15.95-4.59 7.03 2.19 8.74 3.58 8.74 3.58s3.71-2.31 2.75-4.64c-.97-2.32-8.32-9.84-10.46-10.82-2.13-.97-10.98 2.02-10.98 2.02s-6.5-1.76-11.88 1.83Z"/><path fill="url(#s)" d="M295.19 245.59s-6.39.76-8 4.96c-1.62 4.2-2.19 4.71-2.19 4.71s3.6.69 5.1-1.26c1.5-1.96 3.06-1.14 3.06-1.14l-.45 2.51s9.8 1.48 14.23-.11c4.42-1.59 6.32-3.45 6.32-3.45l1.74-4.24s-4.18-3.03-7.34-3.5c-3.15-.47-12.47 1.52-12.47 1.52Z"/><path fill="#25233A" d="M328.89 290s21.93 16.68 19.98 39.25c-1.95 22.58-4.81 56.09-4.81 56.09s-8.85 3.72-14.71 0c-5.86-3.72-9.41-54.65-12.31-59.51-2.91-4.87-20.38-26.79-39.04-28.68l50.89-7.15Z"/><path fill="#3F3D56" d="M219 306.05s10.44 9.9 29.06 13.01c18.62 3.1 27.29 5.7 32.98 21.6 5.69 15.91 11.15 50.14 12.94 53.96 1.78 3.83 9.38 1.88 9.38 1.88s4.3-4.9 4.3-32.12c0-37.94 2.65-45.72-6.92-55.25-9.56-9.54-18.27-12.13-18.27-12.13L219 306.05Z"/><path fill="#25233A" d="m294 396 1.82 14.19h3.4s21.95 1.19 22.64.68c.69-.52-1.06-11.25-9.37-10.94-8.32.3-8.86-2.03-8.86-2.03L294 396ZM331 386.15l3.51 13.85 38.44-5.22s1.35-9.09-10.82-8.19c-3.22.24-5.61 2.47-9.47 2.49-3.87.02-7.57-1.55-9.51-4.08L331 386.15Z"/><path fill="#2BD0D0" d="m461.8 212.33-142.24 7.66c-3.44.18-6.38-2.47-6.56-5.93V112.47c0-4.1 3.26-7.45 7.34-7.54L462 102a6.84 6.84 0 0 1 4.89 1.91 6.95 6.95 0 0 1 2.11 4.83v95.97c-.01 4.06-3.17 7.4-7.2 7.62Z"/><path fill="#2BD0D0" d="m469.8 212.33-142.25 7.66c-3.44.17-6.37-2.48-6.55-5.94V112.47c-.01-4.1 3.26-7.45 7.34-7.54L470.02 102c3.77-.07 6.9 2.94 6.98 6.73v95.98c-.01 4.06-3.17 7.4-7.2 7.62Z"/><path fill="url(#t)" d="m469.8 212.33-142.25 7.66c-3.44.17-6.37-2.48-6.55-5.94V112.47c-.01-4.1 3.26-7.45 7.34-7.54L470.02 102c3.77-.07 6.9 2.94 6.98 6.73v95.98c-.01 4.06-3.17 7.4-7.2 7.62Z"/><path fill="#3A3054" d="m427.77 251.13-36.3 3.87s-11.05-2.23-10.45-3.87c.6-1.63 12.15-3.2 12.15-3.2v-65.81c-.09-.14-1.62-2.08-5.78-3.31-.81-.24-1.63-.43-2.46-.57-.72-.11-1.41-.32-2.06-.63-2.48-1.28.26-3.51 4.1-3.61.61-.02 1.21.02 1.8.11h27.92s10.57 2.97 11.08 17.81c.51 14.84 0 59.21 0 59.21Z"/><path fill="#51466B" d="m398 251.27-6.68 3.73s-10.89-2.23-10.3-3.87c.59-1.63 11.99-3.2 11.99-3.2v-65.81c-.13-.15-1.8-1.9-5.7-3.32-1.45-.52-2.94-.92-4.45-1.19-2.44-1.29.25-3.51 4.04-3.61 3.23.44 9.59 4.02 10 6.07.41 2.04 1.1 71.2 1.1 71.2Z"/><path fill="url(#u)" d="M263 389c-.89 1-1.3 1.37-.77.54.27-.16.52-.34.77-.54Z"/></svg>